<svg width="137" height="125" viewBox="0 0 137 125" fill="none" xmlns="http://www.w3.org/2000/svg">
<path d="M124.35 56.27C124.35 49.38 116.24 43.27 103.77 39.54C106.77 26.87 105.46 16.79 99.4899 13.38C98.026 12.567 96.3741 12.1532 94.6999 12.18C89.1299 12.18 82.0899 16.07 74.9799 22.8C67.8699 16.12 60.8499 12.25 55.2899 12.25C53.5897 12.2124 51.9108 12.6339 50.4299 13.47C44.4899 16.89 43.2599 26.91 46.2199 39.52C33.8099 43.23 25.7399 49.29 25.7199 56.15C25.6999 63.01 33.8399 69.15 46.3099 72.87C43.3099 85.55 44.6099 95.62 50.5899 99.03C52.0483 99.8476 53.6983 100.262 55.3699 100.23C60.9499 100.23 67.9899 96.34 75.0999 89.61C82.1999 96.29 89.2199 100.16 94.7899 100.16C96.4894 100.191 98.1666 99.7702 99.6499 98.94C105.59 95.52 106.81 85.5 103.86 72.94C116.27 69.18 124.34 63.12 124.35 56.27ZM79.5599 25.06C87.7499 17.73 92.8699 16.94 94.6899 16.94C95.534 16.9129 96.3698 17.1132 97.1099 17.52C99.9699 19.15 101.11 24.9 100.2 32.52C99.9668 34.466 99.633 36.3986 99.1999 38.31C95.0561 37.3468 90.8538 36.6554 86.6199 36.24C84.0986 32.7019 81.3459 29.3346 78.3799 26.16C78.7499 25.79 79.1499 25.42 79.5599 25.06ZM54.7699 61.94C55.5499 63.44 56.3799 64.94 57.2399 66.45C58.0999 67.96 58.9999 69.49 59.9999 71C57.2899 70.61 54.6599 70.12 52.1599 69.54C52.8599 67 53.7499 64.5 54.7699 61.94ZM51.9999 42.9C54.5299 42.31 57.1799 41.82 59.9299 41.44C58.9299 42.92 58.0699 44.44 57.1699 46.03C56.2699 47.62 55.4799 49.03 54.7099 50.55C53.6899 47.95 52.7866 45.4 51.9999 42.9ZM57.2099 56.24C58.4499 53.62 59.8132 51 61.2999 48.38C62.7999 45.76 64.4099 43.21 66.0699 40.77C68.9799 40.55 71.9799 40.43 75.0699 40.44C78.1599 40.45 81.0699 40.56 83.9599 40.79C85.6199 43.21 87.2099 45.79 88.7099 48.34C90.2099 50.89 91.5899 53.56 92.8299 56.17C91.5999 58.79 90.2299 61.42 88.7499 64.02C87.2699 66.62 85.6399 69.2 83.9799 71.64C81.0699 71.87 78.0699 71.98 74.9799 71.98C71.8899 71.98 68.9799 71.85 66.0899 71.62C64.4299 69.2 62.8299 66.68 61.3299 64.07C59.8299 61.46 58.4999 58.85 57.2499 56.24H57.2099ZM90.0699 41.47C92.7899 41.85 95.4199 42.34 97.9099 42.92C97.1699 45.39 96.2899 47.92 95.2699 50.47C94.4799 48.97 93.6599 47.47 92.7899 45.96C91.9199 44.45 90.9999 42.93 90.1099 41.47H90.0699ZM92.8299 66.39C93.6899 64.8767 94.5099 63.3667 95.2899 61.86C96.2899 64.46 97.2899 67.02 97.9899 69.52C95.4699 70.11 92.8199 70.59 90.0699 70.97C91.0366 69.49 91.9699 67.9633 92.8699 66.39H92.8299ZM74.9999 29.56C76.7999 31.48 78.5699 33.56 80.2999 35.79C78.5899 35.72 76.8399 35.67 75.0699 35.67C73.2999 35.67 71.4899 35.67 69.7399 35.79C71.4499 33.57 73.1999 31.48 74.9999 29.56ZM52.8199 17.56C53.5786 17.1565 54.4314 16.9632 55.2899 17C57.0916 17.0751 58.8584 17.5211 60.4799 18.31C64.1446 20.0378 67.5183 22.3252 70.4799 25.09L71.6499 26.16C68.7142 29.3113 65.9883 32.6518 63.4899 36.16C59.2331 36.5724 55.0076 37.2605 50.8399 38.22C50.3999 36.28 50.0399 34.38 49.8399 32.55C48.7999 25 49.9999 19.24 52.8099 17.6L52.8199 17.56ZM47.5299 68.26C45.6509 67.6864 43.802 67.0189 41.9899 66.26C34.8899 63.26 30.4899 59.41 30.4899 56.12C30.4899 52.83 34.9099 49 41.9999 46.05C43.7797 45.3128 45.5953 44.6653 47.4399 44.11C48.69 48.253 50.2133 52.3085 51.9999 56.25C50.2514 60.1523 48.7582 64.1641 47.5299 68.26ZM70.5299 87.36C62.3399 94.69 57.2199 95.47 55.3899 95.47C54.5457 95.4981 53.7096 95.2977 52.9699 94.89C50.1099 93.26 48.9699 87.51 49.8799 79.89C50.1121 77.9472 50.4459 76.0179 50.8799 74.11C55.0249 75.0648 59.2268 75.7529 63.4599 76.17C65.9781 79.7104 68.731 83.078 71.6999 86.25L70.5299 87.36ZM75.0999 82.85C73.2999 80.93 71.5299 78.85 69.7899 76.62C71.5099 76.7 73.2599 76.74 75.0299 76.74C76.7999 76.74 78.6099 76.74 80.3599 76.63C78.6299 78.85 76.8699 80.93 75.0899 82.85H75.0999ZM97.2799 94.85C96.5212 95.2657 95.6645 95.4695 94.7999 95.44C92.9799 95.44 87.7999 94.64 79.6399 87.34L78.4699 86.27C81.4023 83.1185 84.1248 79.778 86.6199 76.27C90.8807 75.8634 95.11 75.1752 99.2799 74.21C99.7199 76.15 100.07 78.05 100.28 79.88C101.27 87.42 100.12 93.18 97.2699 94.81L97.2799 94.85ZM108.08 66.41C106.37 67.11 104.56 67.76 102.64 68.34C101.385 64.1974 99.8582 60.1419 98.0699 56.2C99.8265 52.3021 101.326 48.2936 102.56 44.2C104.439 44.7736 106.288 45.4411 108.1 46.2C115.19 49.2 119.6 53.05 119.59 56.34C119.58 59.63 115.17 63.42 108.07 66.37L108.08 66.41ZM74.9999 65.39C76.8155 65.392 78.591 64.8555 80.1017 63.8484C81.6124 62.8414 82.7906 61.409 83.4873 59.7323C84.1839 58.0556 84.3677 56.21 84.0154 54.4289C83.6632 52.6478 82.7906 51.0111 81.5082 49.7258C80.2257 48.4406 78.591 47.5645 76.8106 47.2084C75.0303 46.8522 73.1843 47.032 71.5061 47.725C69.8279 48.418 68.3929 49.593 67.3826 51.1016C66.3722 52.6101 65.8319 54.3844 65.8299 56.2C65.8273 57.4059 66.0625 58.6005 66.5222 59.7154C66.9818 60.8302 67.6569 61.8435 68.5086 62.6971C69.3604 63.5507 70.3722 64.228 71.4861 64.6901C72.5999 65.1522 73.794 65.39 74.9999 65.39V65.39ZM13.9999 0.880005V111.53H136.07V0.880005H13.9999ZM131.3 106.77H18.7799V5.65001H131.3V106.77ZM46.2999 72.87C43.2999 85.55 44.5999 95.62 50.5799 99.03C52.0383 99.8476 53.6882 100.262 55.3599 100.23C60.9399 100.23 67.9799 96.34 75.0899 89.61C82.1899 96.29 89.2099 100.16 94.7799 100.16C96.4794 100.191 98.1566 99.7702 99.6399 98.94C105.58 95.52 106.8 85.5 103.85 72.94C116.26 69.22 124.33 63.16 124.34 56.31C124.35 49.46 116.23 43.31 103.76 39.58C106.76 26.91 105.45 16.83 99.4799 13.42C98.016 12.607 96.3642 12.1932 94.6899 12.22C89.1199 12.22 82.0799 16.11 74.9699 22.84C67.8599 16.16 60.8399 12.29 55.2799 12.29C53.5797 12.2524 51.9008 12.6739 50.4199 13.51C44.4799 16.93 43.2499 26.95 46.2099 39.56C33.7999 43.27 25.7299 49.33 25.7099 56.19C25.6899 63.05 33.8399 69.13 46.3099 72.87H46.2999ZM70.5099 87.36C62.3199 94.69 57.1999 95.47 55.3699 95.47C54.5257 95.4981 53.6896 95.2977 52.9499 94.89C50.0899 93.26 48.9499 87.51 49.8599 79.89C50.0921 77.9472 50.4259 76.0179 50.8599 74.11C55.0049 75.0648 59.2068 75.7529 63.4399 76.17C65.9581 79.7104 68.711 83.078 71.6799 86.25L70.5099 87.36ZM95.2999 50.47C94.5099 48.97 93.6899 47.47 92.8199 45.96C91.9499 44.45 91.0199 42.96 90.0999 41.47C92.8199 41.85 95.4499 42.34 97.9399 42.92C97.2099 45.39 96.3299 47.92 95.3099 50.47H95.2999ZM98.0199 69.47C95.4999 70.06 92.8499 70.54 90.0999 70.92C91.0399 69.44 91.9599 67.9133 92.8599 66.34C93.7599 64.7667 94.5799 63.2567 95.3199 61.81C96.3699 64.46 97.2799 67 97.9999 69.52L98.0199 69.47ZM92.8099 56.12C91.5799 58.74 90.2099 61.37 88.7299 63.97C87.2499 66.57 85.6199 69.15 83.9599 71.59C81.0499 71.82 78.0499 71.93 74.9599 71.93C71.8699 71.93 68.9599 71.8 66.0699 71.57C64.4099 69.15 62.8099 66.63 61.3099 64.02C59.8099 61.41 58.4399 58.8 57.1899 56.19C58.4299 53.57 59.7932 50.95 61.2799 48.33C62.7799 45.71 64.3899 43.16 66.0499 40.72C68.9599 40.5 71.9599 40.38 75.0499 40.39C78.1399 40.4 81.0499 40.51 83.9399 40.74C85.5999 43.16 87.1899 45.74 88.6899 48.29C90.1899 50.84 91.5799 53.56 92.8199 56.17L92.8099 56.12ZM59.9999 71C57.2899 70.61 54.6599 70.12 52.1599 69.54C52.8999 67.08 53.7899 64.54 54.8099 61.99C55.5899 63.49 56.4199 64.99 57.2799 66.5C58.1399 68.01 58.9999 69.49 59.9999 71ZM57.2099 46C56.3399 47.5 55.5199 49 54.7499 50.52C53.7032 47.94 52.7866 45.4 51.9999 42.9C54.5299 42.31 57.1799 41.82 59.9299 41.44C58.9999 42.92 58.1099 44.45 57.2099 46ZM75.0899 82.85C73.2899 80.93 71.5199 78.85 69.7799 76.62C71.4999 76.7 73.2499 76.74 75.0199 76.74C76.7899 76.74 78.5999 76.74 80.3499 76.63C78.6299 78.85 76.8699 80.93 75.0899 82.85ZM97.2699 94.85C96.5112 95.2657 95.6545 95.4695 94.7899 95.44C92.9699 95.44 87.7899 94.64 79.6299 87.34L78.4599 86.27C81.3923 83.1185 84.1148 79.778 86.6099 76.27C90.8707 75.8634 95.1 75.1752 99.2699 74.21C99.7099 76.15 100.06 78.05 100.27 79.88C101.27 87.42 100.12 93.18 97.2699 94.81V94.85ZM102.55 44.19C104.429 44.7636 106.278 45.4311 108.09 46.19C115.18 49.19 119.59 53.04 119.58 56.33C119.57 59.62 115.17 63.49 108.07 66.44C106.36 67.14 104.55 67.79 102.63 68.37C101.375 64.2274 99.8482 60.1719 98.0599 56.23C99.8197 52.3061 101.32 48.2707 102.55 44.15V44.19ZM79.5499 25.1C87.7399 17.77 92.8599 16.98 94.6799 16.98C95.524 16.9529 96.3598 17.1532 97.0999 17.56C99.9599 19.19 101.1 24.94 100.19 32.56C99.9568 34.506 99.623 36.4386 99.1899 38.35C95.0461 37.3868 90.8438 36.6954 86.6099 36.28C84.0886 32.7419 81.3359 29.3746 78.3699 26.2C78.7499 25.79 79.1499 25.42 79.5599 25.06L79.5499 25.1ZM74.9999 29.56C76.7999 31.48 78.5699 33.56 80.2999 35.79C78.5899 35.72 76.8399 35.67 75.0699 35.67C73.2999 35.67 71.4899 35.67 69.7399 35.79C71.4499 33.57 73.1999 31.48 74.9999 29.56ZM52.8199 17.56C53.5786 17.1565 54.4314 16.9632 55.2899 17C57.0916 17.0751 58.8584 17.5211 60.4799 18.31C64.1446 20.0378 67.5183 22.3252 70.4799 25.09L71.6499 26.16C68.7142 29.3113 65.9883 32.6518 63.4899 36.16C59.2331 36.5724 55.0076 37.2605 50.8399 38.22C50.3999 36.28 50.0399 34.38 49.8399 32.55C48.7999 25 49.9999 19.24 52.8099 17.6L52.8199 17.56ZM41.9999 46.05C43.7797 45.3128 45.5953 44.6653 47.4399 44.11C48.69 48.253 50.2133 52.3085 51.9999 56.25C50.245 60.1486 48.7451 64.157 47.5099 68.25C45.631 67.6764 43.782 67.0089 41.9699 66.25C34.8699 63.25 30.4699 59.4 30.4699 56.11C30.4699 52.82 34.9099 49 41.9999 46.05ZM74.9999 47.05C73.1843 47.048 71.4088 47.5845 69.8981 48.5916C68.3873 49.5986 67.2092 51.0311 66.5125 52.7077C65.8159 54.3844 65.6321 56.23 65.9843 58.0111C66.3366 59.7923 67.2091 61.4289 68.4916 62.7142C69.774 63.9994 71.4088 64.8755 73.1892 65.2317C74.9695 65.5878 76.8155 65.408 78.4937 64.715C80.1719 64.0221 81.6069 62.847 82.6172 61.3385C83.6276 59.8299 84.1679 58.0556 84.1699 56.24C84.1791 55.0299 83.9488 53.8299 83.4921 52.7093C83.0354 51.5886 82.3614 50.5695 81.5089 49.7105C80.6565 48.8516 79.6425 48.1699 78.5253 47.7047C77.4082 47.2395 76.21 47 74.9999 47V47.05ZM74.9999 47.05C73.1843 47.048 71.4088 47.5845 69.8981 48.5916C68.3873 49.5986 67.2092 51.0311 66.5125 52.7077C65.8159 54.3844 65.6321 56.23 65.9843 58.0111C66.3366 59.7923 67.2091 61.4289 68.4916 62.7142C69.774 63.9994 71.4088 64.8755 73.1892 65.2317C74.9695 65.5878 76.8155 65.408 78.4937 64.715C80.1719 64.0221 81.6069 62.847 82.6172 61.3385C83.6276 59.8299 84.1679 58.0556 84.1699 56.24C84.1791 55.0299 83.9488 53.8299 83.4921 52.7093C83.0354 51.5886 82.3614 50.5695 81.5089 49.7105C80.6565 48.8516 79.6425 48.1699 78.5253 47.7047C77.4082 47.2395 76.21 47 74.9999 47V47.05ZM74.9999 47.05C73.1843 47.048 71.4088 47.5845 69.8981 48.5916C68.3873 49.5986 67.2092 51.0311 66.5125 52.7077C65.8159 54.3844 65.6321 56.23 65.9843 58.0111C66.3366 59.7923 67.2091 61.4289 68.4916 62.7142C69.774 63.9994 71.4088 64.8755 73.1892 65.2317C74.9695 65.5878 76.8155 65.408 78.4937 64.715C80.1719 64.0221 81.6069 62.847 82.6172 61.3385C83.6276 59.8299 84.1679 58.0556 84.1699 56.24C84.1791 55.0299 83.9488 53.8299 83.4921 52.7093C83.0354 51.5886 82.3614 50.5695 81.5089 49.7105C80.6565 48.8516 79.6425 48.1699 78.5253 47.7047C77.4082 47.2395 76.21 47 74.9999 47V47.05ZM124.35 56.29C124.35 49.4 116.24 43.29 103.77 39.56C106.77 26.89 105.46 16.81 99.4899 13.4C98.026 12.587 96.3741 12.1732 94.6999 12.2C89.1299 12.2 82.0899 16.09 74.9799 22.82C67.8699 16.14 60.8499 12.27 55.2899 12.27C53.5897 12.2324 51.9108 12.6539 50.4299 13.49C44.4899 16.91 43.2599 26.93 46.2199 39.54C33.8099 43.25 25.7399 49.31 25.7199 56.17C25.6999 63.03 33.8399 69.17 46.3099 72.89C43.3099 85.57 44.6099 95.64 50.5899 99.05C52.0483 99.8676 53.6983 100.282 55.3699 100.25C60.9499 100.25 67.9899 96.36 75.0999 89.63C82.1999 96.31 89.2199 100.18 94.7899 100.18C96.4894 100.211 98.1666 99.7902 99.6499 98.96C105.59 95.54 106.81 85.52 103.86 72.96C116.27 69.18 124.34 63.12 124.35 56.27V56.29ZM79.5599 25.06C87.7499 17.73 92.8699 16.94 94.6899 16.94C95.534 16.9129 96.3698 17.1132 97.1099 17.52C99.9699 19.15 101.11 24.9 100.2 32.52C99.9668 34.466 99.633 36.3986 99.1999 38.31C95.0561 37.3468 90.8538 36.6554 86.6199 36.24C84.0986 32.7019 81.3459 29.3346 78.3799 26.16C78.7499 25.79 79.1499 25.42 79.5599 25.06ZM54.7699 61.94C55.5499 63.44 56.3799 64.94 57.2399 66.45C58.0999 67.96 58.9999 69.49 59.9999 71C57.2899 70.61 54.6599 70.12 52.1599 69.54C52.8599 67 53.7499 64.5 54.7699 61.94ZM51.9999 42.9C54.5299 42.31 57.1799 41.82 59.9299 41.44C58.9299 42.92 58.0699 44.44 57.1699 46.03C56.2699 47.62 55.4799 49.03 54.7099 50.55C53.6899 47.95 52.7866 45.4 51.9999 42.9ZM57.2099 56.24C58.4499 53.62 59.8132 51 61.2999 48.38C62.7999 45.76 64.4099 43.21 66.0699 40.77C68.9799 40.55 71.9799 40.43 75.0699 40.44C78.1599 40.45 81.0699 40.56 83.9599 40.79C85.6199 43.21 87.2099 45.79 88.7099 48.34C90.2099 50.89 91.5899 53.56 92.8299 56.17C91.5999 58.79 90.2299 61.42 88.7499 64.02C87.2699 66.62 85.6399 69.2 83.9799 71.64C81.0699 71.87 78.0699 71.98 74.9799 71.98C71.8899 71.98 68.9799 71.85 66.0899 71.62C64.4299 69.2 62.8299 66.68 61.3299 64.07C59.8299 61.46 58.4999 58.85 57.2499 56.24H57.2099ZM90.0699 41.47C92.7899 41.85 95.4199 42.34 97.9099 42.92C97.1699 45.39 96.2899 47.92 95.2699 50.47C94.4799 48.97 93.6599 47.47 92.7899 45.96C91.9199 44.45 90.9999 42.93 90.1099 41.47H90.0699ZM92.8299 66.39C93.6899 64.8767 94.5099 63.3667 95.2899 61.86C96.2899 64.46 97.2899 67.02 97.9899 69.52C95.4699 70.11 92.8199 70.59 90.0699 70.97C91.0366 69.49 91.9699 67.9633 92.8699 66.39H92.8299ZM74.9999 29.56C76.7999 31.48 78.5699 33.56 80.2999 35.79C78.5899 35.72 76.8399 35.67 75.0699 35.67C73.2999 35.67 71.4899 35.67 69.7399 35.79C71.4499 33.57 73.1999 31.48 74.9999 29.56ZM52.8199 17.56C53.5786 17.1565 54.4314 16.9632 55.2899 17C57.0916 17.0751 58.8584 17.5211 60.4799 18.31C64.1446 20.0378 67.5183 22.3252 70.4799 25.09L71.6499 26.16C68.7142 29.3113 65.9883 32.6518 63.4899 36.16C59.2331 36.5724 55.0076 37.2605 50.8399 38.22C50.3999 36.28 50.0399 34.38 49.8399 32.55C48.7999 25 49.9999 19.24 52.8099 17.6L52.8199 17.56ZM47.5299 68.26C45.6509 67.6864 43.802 67.0189 41.9899 66.26C34.8899 63.26 30.4899 59.41 30.4899 56.12C30.4899 52.83 34.9099 49 41.9999 46.05C43.7797 45.3128 45.5953 44.6653 47.4399 44.11C48.69 48.253 50.2133 52.3085 51.9999 56.25C50.2514 60.1523 48.7582 64.1641 47.5299 68.26ZM70.5299 87.36C62.3399 94.69 57.2199 95.47 55.3899 95.47C54.5457 95.4981 53.7096 95.2977 52.9699 94.89C50.1099 93.26 48.9699 87.51 49.8799 79.89C50.1121 77.9472 50.4459 76.0179 50.8799 74.11C55.0249 75.0648 59.2268 75.7529 63.4599 76.17C65.9781 79.7104 68.731 83.078 71.6999 86.25L70.5299 87.36ZM75.0999 82.85C73.2999 80.93 71.5299 78.85 69.7899 76.62C71.5099 76.7 73.2599 76.74 75.0299 76.74C76.7999 76.74 78.6099 76.74 80.3599 76.63C78.6299 78.85 76.8699 80.93 75.0899 82.85H75.0999ZM97.2799 94.85C96.5212 95.2657 95.6645 95.4695 94.7999 95.44C92.9799 95.44 87.7999 94.64 79.6399 87.34L78.4699 86.27C81.4023 83.1185 84.1248 79.778 86.6199 76.27C90.8807 75.8634 95.11 75.1752 99.2799 74.21C99.7199 76.15 100.07 78.05 100.28 79.88C101.27 87.42 100.12 93.18 97.2699 94.81L97.2799 94.85ZM108.08 66.41C106.37 67.11 104.56 67.76 102.64 68.34C101.385 64.1974 99.8582 60.1419 98.0699 56.2C99.8265 52.3021 101.326 48.2936 102.56 44.2C104.439 44.7736 106.288 45.4411 108.1 46.2C115.19 49.2 119.6 53.05 119.59 56.34C119.58 59.63 115.17 63.42 108.07 66.37L108.08 66.41ZM74.9999 65.39C76.8155 65.392 78.591 64.8555 80.1017 63.8484C81.6124 62.8414 82.7906 61.409 83.4873 59.7323C84.1839 58.0556 84.3677 56.21 84.0154 54.4289C83.6632 52.6478 82.7906 51.0111 81.5082 49.7258C80.2257 48.4406 78.591 47.5645 76.8106 47.2084C75.0303 46.8522 73.1843 47.032 71.5061 47.725C69.8279 48.418 68.3929 49.593 67.3826 51.1016C66.3722 52.6101 65.8319 54.3844 65.8299 56.2C65.8273 57.4059 66.0625 58.6005 66.5222 59.7154C66.9818 60.8302 67.6569 61.8435 68.5086 62.6971C69.3604 63.5507 70.3722 64.228 71.4861 64.6901C72.5999 65.1522 73.794 65.39 74.9999 65.39V65.39ZM5.67989 119.89V9.20001L0.889893 14V124.66H122.94L127.72 119.89H5.67989Z" fill="#09D3AC"/>
</svg>
